<svg id="solid" height="512" viewBox="0 0 256 256" width="512" xmlns="http://www.w3.org/2000/svg"><path d="m168.039 24.913h-143.932v191.177h12.218v-176.208l2.75-2.75h128.964z"/><path d="m149.208 211.785v-21.931q-.7-.285-1.4-.588v22.518z"/><path d="m126.738 173.044v38.742h1.4v-27.179l2.75-2.75h4.648a55.63 55.63 0 0 1 -8.798-8.813z"/><path d="m168.884 193.937v17.848h6.232v5.5h-74.285v-5.5h6.231v-51.46l2.75-2.75h8.171a55.744 55.744 0 0 1 13.817-59.552h-3.719v-5.5h10.5a55.633 55.633 0 0 1 10.033-5.509h-20.537v-5.5h47.038v1.386a56.142 56.142 0 0 1 10.643 2v-42.268h-143.933v191.177h143.934v-42.051a55.027 55.027 0 0 1 -15.429 2.211c-.481 0-.964-.019-1.446-.032zm-40.807-123.432h47.038v5.5h-47.038zm-68.147-1.492a34.16 34.16 0 0 1 24.039-9.857 34.576 34.576 0 0 1 5.275.407 34.221 34.221 0 0 1 28.973 33.744v.1a34.308 34.308 0 0 1 -34.15 34.249h-.1a34.248 34.248 0 0 1 -24.037-58.643zm39.576 125.087h-47.037v-5.5h47.037zm0-11.009h-47.037v-5.5h47.037zm0-11.009h-47.037v-5.5h47.037z"/><path d="m86.81 122.015a28.823 28.823 0 0 0 25.79-25.951h-25.79z"/><path d="m81.31 122.034v-27.723l-19.375-19.375a28.5 28.5 0 0 0 -6.717 18.47 28.789 28.789 0 0 0 26.092 28.628z"/><path d="m71.189 67.645a28.463 28.463 0 0 0 -5.333 3.433l10.858 10.858z"/><path d="m112.576 90.564a28.759 28.759 0 0 0 -36.248-24.881l9.619 24.881z"/><path d="m112.562 211.785h8.676v-47.043c-.3-.552-.592-1.107-.872-1.668h-7.8z"/><path d="m133.635 187.357h8.676v24.428h-8.676z"/><path d="m154.708 191.754v20.031h8.676v-18.257c-.945-.118-1.891-.253-2.836-.42a56.634 56.634 0 0 1 -5.84-1.354z"/><path d="m230.757 209.569-21.876-31.242a55.822 55.822 0 0 1 -6.75 5.562 56.384 56.384 0 0 1 -7.531 4.446l21.872 31.236a7.643 7.643 0 0 0 10.644 1.877l1.765-1.235a7.652 7.652 0 0 0 1.876-10.644z"/><path d="m141.446 97.222a50.194 50.194 0 1 0 28.695-9.053 49.824 49.824 0 0 0 -28.695 9.053zm61.493 18.165a39.953 39.953 0 1 1 -55.644-9.812 39.953 39.953 0 0 1 55.645 9.812z"/><path d="m139.749 132.932a30.728 30.728 0 0 0 5.125 23.113l5.407-3.786a24.332 24.332 0 0 1 5.975-33.888l-3.786-5.407a30.73 30.73 0 0 0 -12.721 19.968z"/></svg>