<svg id="Layer_1" enable-background="new 0 0 512 512" viewBox="0 0 512 512" xmlns="http://www.w3.org/2000/svg"><path d="m318.457 475.86h73.385v17.836c0 9.817-7.998 17.804-17.836 17.804h-37.703c-9.839 0-17.847-7.987-17.847-17.804v-17.836zm122.503-151.743c0 31.567-13.953 61.199-37.322 79.267-7.606 5.871-11.795 14.673-11.795 24.765v32.921h-73.385v-31.45c0-.085 0-.159-.01-.233-.117-10.166-4.464-18.925-12.314-24.733-24.437-17.952-39.025-48.06-39.025-80.537 0-53.201 38.993-96.49 86.937-96.49 2.708 0 5.395.148 8.04.413.105.021.222.032.327.032 44.018 4.697 78.547 45.976 78.547 96.045zm-118.43-30.467c0-4.041 1.354-7.913 3.713-10.6 2.624-2.994 6.347-4.517 11.076-4.517h52.64c4.084 0 7.395-3.311 7.395-7.395 0-4.073-3.311-7.384-7.395-7.384h-30.012v-12.694c0-4.083-3.311-7.395-7.394-7.395s-7.394 3.311-7.394 7.395v12.695h-7.839c-11.425 0-18.376 5.194-22.194 9.553-4.76 5.427-7.374 12.652-7.374 20.343 0 14.863 10.156 29.896 29.568 29.896h30.467c10.907 0 14.779 8.146 14.779 15.117 0 4.041-1.354 7.913-3.713 10.6-2.613 2.994-6.347 4.517-11.065 4.517h-52.651c-4.083 0-7.384 3.311-7.384 7.395 0 4.083 3.301 7.384 7.384 7.384h30.023v12.695c0 4.083 3.311 7.395 7.394 7.395s7.394-3.311 7.394-7.395v-12.695h7.839c11.425 0 18.376-5.194 22.194-9.553 4.75-5.427 7.374-12.652 7.374-20.343 0-14.853-10.156-29.896-29.568-29.896h-30.467c-10.918-.001-14.79-8.146-14.79-15.118zm-33.524-264.809h-47.013c-3.988 0-7.257-3.163-7.383-7.141-.413-11.891-10.05-21.2-21.951-21.2-11.891 0-21.528 9.309-21.941 21.2-.137 3.978-3.407 7.141-7.384 7.141h-47.023v47.192h152.695zm13.065 393.384h-231.031v-365.668h50.493v26.87c0 4.083 3.3 7.395 7.384 7.395h167.484c4.083 0 7.395-3.311 7.395-7.395v-26.87h51.804v156.303c-.518 0-1.037-.021-1.555-.021-56.089 0-101.726 49.922-101.726 111.279 0 37.174 16.852 71.735 45.045 92.438 2.062 1.522 3.638 3.437 4.707 5.669zm-127.412-269.866-11.816 11.795c-2.888 2.888-2.888 7.564 0 10.452 1.439 1.449 3.332 2.169 5.226 2.169s3.777-.719 5.226-2.158l11.817-11.817 11.827 11.817c1.439 1.439 3.332 2.158 5.216 2.158 1.894 0 3.787-.719 5.236-2.169 2.889-2.888 2.878-7.564-.01-10.452l-11.806-11.795 11.806-11.806c2.888-2.888 2.899-7.564.01-10.452-2.888-2.888-7.574-2.888-10.452 0l-11.827 11.806-11.817-11.806c-2.888-2.888-7.574-2.888-10.452 0-2.888 2.888-2.888 7.564 0 10.452zm-69.915 82.515c1.883 0 3.776-.73 5.226-2.169l11.816-11.817 11.816 11.817c1.439 1.439 3.333 2.169 5.226 2.169 1.894 0 3.787-.73 5.226-2.169 2.888-2.888 2.888-7.564 0-10.452l-11.817-11.817 11.817-11.817c2.888-2.888 2.888-7.574 0-10.462s-7.564-2.888-10.452 0l-11.816 11.817-11.816-11.817c-2.888-2.888-7.575-2.888-10.463 0s-2.888 7.574 0 10.462l11.817 11.817-11.817 11.817c-2.888 2.888-2.888 7.564 0 10.452 1.45 1.439 3.343 2.169 5.237 2.169zm17.148 77.003 54.989-64.764 17.159 26.955c1.28 2.021 3.47 3.29 5.871 3.406 2.38.116 4.697-.931 6.178-2.814l76.453-97.368 3.216 32.911c.37 3.819 3.586 6.675 7.342 6.675.243 0 .487-.011.73-.032 4.063-.402 7.035-4.009 6.644-8.072l-5.004-51.244c-.191-1.947-1.143-3.745-2.656-4.993-1.523-1.238-3.459-1.83-5.416-1.65l-51.244 5.004c-4.063.391-7.035 4.009-6.633 8.072.392 4.073 4.02 7.035 8.072 6.643l34.011-3.322-70.698 90.036-16.936-26.606c-1.259-1.978-3.385-3.237-5.723-3.406-2.338-.159-4.623.804-6.146 2.592l-61.473 72.402c-2.645 3.11-2.264 7.775.846 10.42 1.397 1.185 3.1 1.756 4.782 1.756 2.092.002 4.176-.887 5.636-2.601zm85.947 39.777c0-9.576-7.778-17.368-17.354-17.368s-17.368 7.792-17.368 17.368 7.792 17.354 17.368 17.354c9.576-.001 17.354-7.778 17.354-17.354z"/></svg>