<svg enable-background="new 0 0 512 512" viewBox="0 0 512 512" xmlns="http://www.w3.org/2000/svg"><g id="_x31_5_Model_Training"><g><path d="m505.664 161.896c-2.124-31.343-15.853-59.63-36.835-80.559-21.034-20.878-49.372-34.452-80.767-36.42-35.28-2.176-68.747 9.843-94.34 33.933-25.282 23.727-39.788 57.195-39.788 91.853 0 44.45 22.743 84.756 60.873 107.862 6.424 3.885 10.776 10.724 12.019 18.391-7.305 3.471-12.382 10.828-12.382 19.428 0 5.854 2.383 11.19 6.165 15.076-3.782 3.885-6.165 9.221-6.165 15.076 0 10.931 8.185 19.894 18.754 21.241 3.005 19.998 20.256 35.384 41.031 35.384h11.449c20.774 0 38.026-15.386 41.031-35.384 10.517-1.347 18.754-10.31 18.754-21.241 0-5.854-2.383-11.19-6.217-15.076 3.834-3.886 6.217-9.222 6.217-15.076 0-8.652-5.129-16.06-12.537-19.479 1.088-7.564 5.595-14.35 12.537-18.547 40.359-24.608 63.413-69.266 60.201-116.462zm-119.984 228.312h-11.45c-13.521 0-24.919-9.481-27.872-22.122h67.142c-2.901 12.642-14.299 22.122-27.82 22.122zm38.233-35.073c-51.962 0-35.954 0-87.916 0-4.766 0-8.6-3.885-8.6-8.6 0-4.766 3.834-8.6 8.6-8.6h87.916c4.715 0 8.6 3.834 8.6 8.6 0 4.715-3.886 8.6-8.6 8.6zm0-30.151h-87.916c-4.766 0-8.6-3.834-8.6-8.6 0-4.714 3.834-8.6 8.6-8.6h87.916c4.715 0 8.6 3.885 8.6 8.6 0 4.766-3.886 8.6-8.6 8.6zm14.817-57.713c-10.258 6.268-16.941 16.319-18.599 27.561h-80.508c-1.813-11.346-8.445-21.5-18.081-27.354-34.244-20.723-54.656-56.884-54.656-96.775 0-31.55 12.693-60.821 35.695-82.424 22.95-21.604 52.999-32.379 84.652-30.411 56.314 3.523 101.697 48.646 105.53 104.909.155 2.59.259 5.181.259 7.719.001 39.477-20.359 76.052-54.292 96.775z"/><path d="m447.951 168.786c.777-.932 1.554-1.865 2.228-2.797 12.278-16.267 15.594-31.24 9.377-42.067-7.046-12.123-24.349-16.008-46.47-12.227-7.719-21.914-19.945-35.643-34.296-35.643-14.04 0-26.007 13.055-33.778 33.985-21.241-3.315-37.819.725-44.657 12.537-6.269 10.827-2.953 25.748 9.377 42.067 1.036 1.399 2.176 2.797 3.368 4.196-15.179 17.666-20.982 35.177-13.781 47.61 8.393 14.61 29.685 15.127 46.263 12.278 7.771 19.997 19.531 32.379 33.208 32.379 13.988 0 26.059-13.055 33.778-34.089 17.096 3.16 39.321 3.16 48.025-11.915 7.044-12.173 1.709-29.114-12.642-46.314zm-136.355-39.735c3.523-6.165 14.454-8.6 29.582-6.476-1.917 7.46-3.368 15.594-4.248 24.297-5.44 4.041-10.413 8.237-14.868 12.485-.674-.829-1.399-1.658-2.021-2.487-8.704-11.552-11.864-21.965-8.445-27.819zm24.297 44.657c-1.761-1.606-3.419-3.16-5.077-4.766 1.606-1.502 3.316-3.056 5.077-4.559-.103 5.284-.155 1.761 0 9.325zm-25.385 36.265c-3.834-6.631.414-18.443 11.449-31.602 4.559 4.456 9.584 8.859 15.128 13.055.932 8.911 2.487 17.2 4.507 24.764-15.853 2.486-27.406.155-31.084-6.217zm95.065-76.156c-4.455-2.694-1.502-1.036-8.134-4.663 2.28-.777 4.507-1.45 6.683-2.072.519 2.176 1.037 4.404 1.451 6.735zm-26.784-44.813c7.615 0 15.697 9.533 21.603 25.644-6.061 1.71-12.382 3.886-18.858 6.631-8.185-3.627-16.164-6.424-23.676-8.445 5.804-14.971 13.575-23.83 20.931-23.83zm-24.867 36.161c3.73.984 7.564 2.176 11.605 3.626-6.113 3.264-9.17 5.025-14.195 8.186.725-4.196 1.606-8.082 2.59-11.812zm-2.331 76.415c6.58 4.144 9.947 5.906 14.195 8.134-3.989 1.502-7.823 2.694-11.501 3.73-1.037-3.73-1.918-7.667-2.694-11.864zm27.198 46.574c-7.149 0-14.713-8.237-20.464-22.432 7.46-2.072 15.231-4.818 23.261-8.445 6.269 2.694 12.382 4.87 18.288 6.631-5.802 15.232-13.677 24.246-21.085 24.246zm24.971-36.627c-2.176-.622-4.352-1.347-6.58-2.072 4.093-2.28 1.451-.622 8.134-4.714-.466 2.331-.984 4.61-1.554 6.786zm4.093-23.831c-8.859 6.113-17.355 10.983-26.473 15.386-11.864-5.492-22.225-11.657-32.017-18.65-.829-10.776-.777-20.412-.052-30.566 10.361-7.356 20.93-13.366 32.12-18.443 9.791 4.663 18.132 9.533 26.525 15.283 1.14 12.537 1.088 24.712-.103 36.99zm40.461-57.298c3.419 5.854.207 16.267-8.496 27.82-.207.311-.518.622-.777.984-5.44-5.388-11.76-10.621-18.806-15.749-.829-6.787-1.969-13.211-3.419-19.22 16.111-2.539 27.819-.26 31.498 6.165zm-26.732 30.514c3.212 2.694 6.165 5.388 8.859 8.03-2.746 2.798-5.699 5.543-8.859 8.237.258-6.89.207-10.361 0-16.267zm27.82 47.714c-3.834 6.58-16.164 8.859-33.001 5.906 1.554-6.165 2.797-12.745 3.678-19.738 7.098-5.181 13.47-10.672 19.117-16.267 10.102 12.536 13.884 23.675 10.206 30.099z"/><path d="m108.654 370.247c-3.577 0-6.476 2.899-6.476 6.476v19.946c0 38.964 31.727 70.665 70.718 70.665h142.833c27.962 0 53.365-16.539 64.718-42.136 1.452-3.268-.025-7.096-3.294-8.545-3.289-1.465-7.093.025-8.545 3.294-9.279 20.92-30.037 34.436-52.879 34.436h-142.832c-31.853 0-57.767-25.891-57.767-57.713v-19.946c0-3.578-2.899-6.477-6.476-6.477z"/><path d="m197.258 231.68h-4.973c-1.917-6.942-4.663-13.625-8.289-19.946l3.523-3.523c5.492-5.492 5.492-14.402 0-19.894l-12.537-12.537c-5.284-5.336-14.558-5.336-19.894 0l-3.523 3.523c-6.269-3.626-13.004-6.372-19.946-8.289v-4.974c0-7.771-6.32-14.039-14.091-14.039h-17.718c-7.771 0-14.039 6.268-14.039 14.039v4.974c-6.994 1.917-13.677 4.663-19.997 8.289l-3.523-3.523c-5.336-5.336-14.609-5.336-19.894 0l-12.537 12.537c-5.492 5.492-5.492 14.402 0 19.894l3.523 3.523c-3.627 6.321-6.372 13.004-8.289 19.946h-4.973c-7.719 0-14.04 6.32-14.04 14.091v17.718c0 7.771 6.321 14.092 14.04 14.092h4.973c1.917 6.942 4.663 13.625 8.289 19.945l-3.523 3.523c-5.492 5.492-5.492 14.402 0 19.894l12.537 12.537c5.336 5.336 14.61 5.336 19.894 0l3.523-3.523c6.32 3.627 13.003 6.372 19.997 8.289v4.973c0 7.719 6.268 14.04 14.039 14.04h17.718c7.771 0 14.091-6.321 14.091-14.04v-4.973c6.942-1.917 13.625-4.663 19.946-8.289l3.523 3.523c5.336 5.336 14.61 5.336 19.894 0l12.537-12.537c5.492-5.491 5.492-14.402 0-19.894l-3.523-3.523c3.627-6.32 6.372-13.003 8.289-19.945h4.973c7.771 0 14.092-6.321 14.092-14.092v-17.718c0-7.771-6.321-14.091-14.092-14.091zm-88.589 72.167c-27.147 0-49.216-22.07-49.216-49.216 0-27.147 22.07-49.216 49.216-49.216s49.268 22.07 49.268 49.216-22.122 49.216-49.268 49.216z"/><path d="m144.985 254.63c0 19.997-16.319 36.265-36.317 36.265s-36.265-16.267-36.265-36.265c0-19.997 16.267-36.265 36.265-36.265s36.317 16.268 36.317 36.265z"/></g></g><g id="Layer_1"/></svg>