<?xml version="1.0" encoding="UTF-8"?>
<svg xmlns="http://www.w3.org/2000/svg" viewBox="0 0 64 64" width="512" height="512"><g id="notification"><path d="M58,12v5a1.0029,1.0029,0,0,1-1,1H7a1.0029,1.0029,0,0,1-1-1V12A3.0005,3.0005,0,0,1,8,9.18V11a5,5,0,0,0,10,0V9h9v2a5,5,0,0,0,10,0V9h9v2a5,5,0,0,0,10,0V9.18A3.0005,3.0005,0,0,1,58,12Z"/><path d="M58,19.82V55a3.0088,3.0088,0,0,1-3,3H9a3.0088,3.0088,0,0,1-3-3V19.82A2.7719,2.7719,0,0,0,7,20h3V53a1.0029,1.0029,0,0,0,1,1H48a1.0327,1.0327,0,0,0,.71-.29l5-5A1.0327,1.0327,0,0,0,54,48V20h3A2.7719,2.7719,0,0,0,58,19.82Z"/><path d="M13,6a3.0033,3.0033,0,0,0-3,3v2a3,3,0,0,0,6,0V9A3.0033,3.0033,0,0,0,13,6Z"/><path d="M32,6a3.0033,3.0033,0,0,0-3,3v2a3,3,0,0,0,6,0V9A3.0033,3.0033,0,0,0,32,6Z"/><path d="M51,6a3.0033,3.0033,0,0,0-3,3v2a3,3,0,0,0,6,0V9A3.0033,3.0033,0,0,0,51,6Z"/><polygon points="48 51.59 51.59 48 48 48 48 51.59"/><path d="M32,48a2.0027,2.0027,0,0,0,2-2H30A2.0023,2.0023,0,0,0,32,48Z"/><path d="M39.585,42.4131c-.0235-.01-.0459-.02-.0684-.0313A2.76,2.76,0,0,1,38,39.91V30a5.908,5.908,0,0,0-10.0435-4.3125A6.4521,6.4521,0,0,0,26,30.29v9.62a2.76,2.76,0,0,1-1.5166,2.4716.6214.6214,0,0,1-.0693.0313A.863.863,0,0,0,24,43.15a.8506.8506,0,0,0,.85.85h14.3a.85.85,0,0,0,.85-.85A.8617.8617,0,0,0,39.585,42.4131Z"/><path d="M12,20V52H46V47a1.0029,1.0029,0,0,1,1-1h5V20Zm30.5977,5.9043,2.7675-1.1592a1,1,0,0,1,.7735,1.8438L43.3711,27.748a.9866.9866,0,0,1-.3867.0782,1,1,0,0,1-.3867-1.9219ZM17.3262,25.28a.9974.9974,0,0,1,1.3086-.5352l2.7666,1.1592a1,1,0,0,1-.3868,1.9219.9783.9783,0,0,1-.3857-.0782l-2.7666-1.1591A.9993.9993,0,0,1,17.3262,25.28Zm-1.1656,5.7978a1,1,0,0,1,1-1h3a1,1,0,0,1,0,2h-3A1,1,0,0,1,16.1606,31.0781Zm5.2408,5.1729L18.6348,37.41a.98.98,0,0,1-.3858.0781,1,1,0,0,1-.3867-1.9219l2.7666-1.1592a1,1,0,1,1,.7725,1.8438ZM39.15,46H36a4,4,0,0,1-8,0H24.85a2.8539,2.8539,0,0,1-1.2769-5.4043c.0186-.01.0367-.0176.0557-.0254A.7823.7823,0,0,0,24,39.91V30.29a8.4606,8.4606,0,0,1,2.564-6.0371A7.8675,7.8675,0,0,1,32.26,22,8.0064,8.0064,0,0,1,40,30v9.91a.7813.7813,0,0,0,.3711.66c.02.0078.0381.0166.0566.0254A2.8542,2.8542,0,0,1,39.15,46Zm7.5234-9.125a.9989.9989,0,0,1-.9218.6133.9884.9884,0,0,1-.3868-.0781L42.5977,36.251a1,1,0,0,1,.7734-1.8438l2.7676,1.1592A.9992.9992,0,0,1,46.6738,36.875Zm.166-4.7969h-3a1,1,0,0,1,0-2h3a1,1,0,0,1,0,2Z"/></g></svg>
